<svg width="17" height="10" viewBox="0 0 17 10" fill="none" xmlns="http://www.w3.org/2000/svg">
<path d="M12.1891 0.561201L12.1896 0.561648L16.4395 4.81155L16.4399 4.812C16.4593 4.83135 16.4747 4.85434 16.4852 4.87965C16.4957 4.90496 16.5011 4.93209 16.5011 4.95949C16.5011 4.98689 16.4957 5.01402 16.4852 5.03933C16.4747 5.06464 16.4593 5.08763 16.4399 5.10698L16.4395 5.10743L12.1896 9.35733C12.1503 9.39657 12.0971 9.41861 12.0416 9.41861C11.9861 9.41861 11.9329 9.39657 11.8937 9.35733C11.8544 9.3181 11.8324 9.26488 11.8324 9.2094C11.8324 9.15394 11.8544 9.10076 11.8936 9.06153C11.8936 9.06151 11.8937 9.06148 11.8937 9.06146L15.6434 5.31311L15.9972 4.95949L15.6434 4.60587L11.8936 0.857452L11.8932 0.857073C11.8738 0.837723 11.8584 0.814735 11.8479 0.789425C11.8374 0.764116 11.832 0.736985 11.832 0.709584C11.832 0.682183 11.8374 0.655051 11.8479 0.629742C11.8584 0.604432 11.8738 0.581444 11.8932 0.562095L11.5401 0.208095L11.8941 0.561201C11.9135 0.541801 11.9365 0.526409 11.9618 0.515907C11.9871 0.505406 12.0142 0.5 12.0416 0.5C12.069 0.5 12.0961 0.505406 12.1215 0.515907C12.1468 0.526409 12.1698 0.541801 12.1891 0.561201Z" fill="#F16D7F" stroke="#F16D7F"/>
<path d="M0.5 4.95948C0.5 4.90423 0.521948 4.85124 0.561015 4.81217C0.600082 4.77311 0.653069 4.75116 0.708318 4.75116H15.583C15.6382 4.75116 15.6912 4.77311 15.7303 4.81217C15.7694 4.85124 15.7913 4.90423 15.7913 4.95948C15.7913 5.01473 15.7694 5.06771 15.7303 5.10678C15.6912 5.14585 15.6382 5.1678 15.583 5.1678H0.708318C0.653068 5.1678 0.600082 5.14585 0.561015 5.10678C0.521948 5.06771 0.5 5.01473 0.5 4.95948Z" fill="#F16D7F" stroke="#F16D7F"/>
</svg>
